<mxfile host="app.diagrams.net" modified="2023-04-06T09:06:55.927Z" agent="Mozilla/5.0 (Windows NT 10.0; Win64; x64) AppleWebKit/537.36 (KHTML, like Gecko) Chrome/111.0.0.0 Safari/537.36" etag="Y2zvQI7CTrb9fNiUkpHE" version="21.1.2" type="github">
  <diagram name="第 1 页" id="MIiz1nMFuuwnBFZu1bG-">
    <mxGraphModel dx="1434" dy="788" grid="1" gridSize="10" guides="1" tooltips="1" connect="1" arrows="1" fold="1" page="1" pageScale="1" pageWidth="827" pageHeight="1169" math="0" shadow="0">
      <root>
        <mxCell id="0" />
        <mxCell id="1" parent="0" />
        <mxCell id="UNmTOvh30nXobsrLZt_r-12" style="edgeStyle=orthogonalEdgeStyle;rounded=0;orthogonalLoop=1;jettySize=auto;html=1;exitX=1;exitY=0.5;exitDx=0;exitDy=0;entryX=0;entryY=0.5;entryDx=0;entryDy=0;" edge="1" parent="1" source="UNmTOvh30nXobsrLZt_r-3" target="UNmTOvh30nXobsrLZt_r-6">
          <mxGeometry relative="1" as="geometry" />
        </mxCell>
        <mxCell id="UNmTOvh30nXobsrLZt_r-13" style="edgeStyle=orthogonalEdgeStyle;rounded=0;orthogonalLoop=1;jettySize=auto;html=1;exitX=0.25;exitY=1;exitDx=0;exitDy=0;entryX=0.25;entryY=0;entryDx=0;entryDy=0;" edge="1" parent="1" source="UNmTOvh30nXobsrLZt_r-3" target="UNmTOvh30nXobsrLZt_r-7">
          <mxGeometry relative="1" as="geometry" />
        </mxCell>
        <mxCell id="UNmTOvh30nXobsrLZt_r-3" value="策略执行点（PEP）" style="rounded=1;whiteSpace=wrap;html=1;fillColor=#fff2cc;strokeColor=#d6b656;" vertex="1" parent="1">
          <mxGeometry x="340" y="210" width="160" height="50" as="geometry" />
        </mxCell>
        <mxCell id="UNmTOvh30nXobsrLZt_r-10" style="edgeStyle=orthogonalEdgeStyle;rounded=0;orthogonalLoop=1;jettySize=auto;html=1;exitX=1;exitY=0.5;exitDx=0;exitDy=0;entryX=0;entryY=0.5;entryDx=0;entryDy=0;" edge="1" parent="1" source="UNmTOvh30nXobsrLZt_r-5" target="UNmTOvh30nXobsrLZt_r-3">
          <mxGeometry relative="1" as="geometry" />
        </mxCell>
        <mxCell id="UNmTOvh30nXobsrLZt_r-5" value="访问主体" style="ellipse;whiteSpace=wrap;html=1;fillColor=#d5e8d4;strokeColor=#82b366;" vertex="1" parent="1">
          <mxGeometry x="160" y="202.5" width="100" height="65" as="geometry" />
        </mxCell>
        <mxCell id="UNmTOvh30nXobsrLZt_r-6" value="资源" style="ellipse;whiteSpace=wrap;html=1;fillColor=#d5e8d4;strokeColor=#82b366;" vertex="1" parent="1">
          <mxGeometry x="580" y="202.5" width="100" height="65" as="geometry" />
        </mxCell>
        <mxCell id="UNmTOvh30nXobsrLZt_r-14" style="edgeStyle=orthogonalEdgeStyle;rounded=0;orthogonalLoop=1;jettySize=auto;html=1;exitX=0.75;exitY=0;exitDx=0;exitDy=0;entryX=0.75;entryY=1;entryDx=0;entryDy=0;" edge="1" parent="1" source="UNmTOvh30nXobsrLZt_r-7" target="UNmTOvh30nXobsrLZt_r-3">
          <mxGeometry relative="1" as="geometry" />
        </mxCell>
        <mxCell id="UNmTOvh30nXobsrLZt_r-15" style="edgeStyle=orthogonalEdgeStyle;rounded=0;orthogonalLoop=1;jettySize=auto;html=1;exitX=0.5;exitY=1;exitDx=0;exitDy=0;entryX=0.5;entryY=0;entryDx=0;entryDy=0;" edge="1" parent="1" source="UNmTOvh30nXobsrLZt_r-7" target="UNmTOvh30nXobsrLZt_r-8">
          <mxGeometry relative="1" as="geometry" />
        </mxCell>
        <mxCell id="UNmTOvh30nXobsrLZt_r-16" style="edgeStyle=orthogonalEdgeStyle;rounded=0;orthogonalLoop=1;jettySize=auto;html=1;exitX=0.5;exitY=1;exitDx=0;exitDy=0;entryX=0.5;entryY=0;entryDx=0;entryDy=0;" edge="1" parent="1" source="UNmTOvh30nXobsrLZt_r-7" target="UNmTOvh30nXobsrLZt_r-9">
          <mxGeometry relative="1" as="geometry" />
        </mxCell>
        <mxCell id="UNmTOvh30nXobsrLZt_r-7" value="策略决策点（PDP）" style="rounded=1;whiteSpace=wrap;html=1;fillColor=#fff2cc;strokeColor=#d6b656;" vertex="1" parent="1">
          <mxGeometry x="340" y="320" width="160" height="50" as="geometry" />
        </mxCell>
        <mxCell id="UNmTOvh30nXobsrLZt_r-8" value="策略管理点（PAP）" style="rounded=1;whiteSpace=wrap;html=1;fillColor=#ffe6cc;strokeColor=#d79b00;" vertex="1" parent="1">
          <mxGeometry x="240" y="430" width="160" height="50" as="geometry" />
        </mxCell>
        <mxCell id="UNmTOvh30nXobsrLZt_r-9" value="策略信息点（PIP）" style="rounded=1;whiteSpace=wrap;html=1;fillColor=#f8cecc;strokeColor=#b85450;" vertex="1" parent="1">
          <mxGeometry x="440" y="430" width="160" height="50" as="geometry" />
        </mxCell>
      </root>
    </mxGraphModel>
  </diagram>
</mxfile>
